<svg width="39" height="31" viewBox="0 0 39 31" fill="none" xmlns="http://www.w3.org/2000/svg">
<path fill-rule="evenodd" clip-rule="evenodd" d="M21.1736 2.10587C21.3912 1.2352 22.2734 0.705838 23.1441 0.923507C24.0147 1.14118 24.5442 2.02344 24.3264 2.89411L17.8264 28.8941C17.6088 29.7647 16.7266 30.2942 15.8559 30.0764C14.9852 29.8588 14.4559 28.9766 14.6735 28.1059L21.1736 2.10587ZM10.8991 8.52404L3.92309 15.5L10.8991 22.476C11.5336 23.1105 11.5336 24.1395 10.8991 24.774C10.2644 25.4086 9.23556 25.4086 8.60095 24.774L0.475951 16.649C-0.15865 16.0145 -0.15865 14.9855 0.475951 14.351L8.60095 6.22595C9.23556 5.59134 10.2644 5.59134 10.8991 6.22595C11.5336 6.86054 11.5336 7.88944 10.8991 8.52404ZM28.101 22.476L35.0769 15.5L28.101 8.52404C27.4664 7.88944 27.4664 6.86054 28.101 6.22595C28.7355 5.59134 29.7645 5.59134 30.399 6.22595L38.524 14.351C39.1586 14.9855 39.1586 16.0145 38.524 16.649L30.399 24.774C29.7645 25.4086 28.7355 25.4086 28.101 24.774C27.4664 24.1395 27.4664 23.1105 28.101 22.476Z" fill="black"/>
</svg>