<svg width="182" height="180" viewBox="0 0 182 180" fill="none" xmlns="http://www.w3.org/2000/svg">
<path d="M80.0799 32.4C84.1005 32.4 87.3599 29.1765 87.3599 25.2C87.3599 21.2235 84.1005 18 80.0799 18C76.0593 18 72.7999 21.2235 72.7999 25.2C72.7999 29.1765 76.0593 32.4 80.0799 32.4Z" fill="black"/>
<path d="M163.8 50.4H141.96V18C141.96 8.0748 133.795 0 123.76 0H72.8C62.7645 0 54.6 8.0748 54.6 18V43.2H18.2C8.16452 43.2 0 51.2748 0 61.2V111.6C0 121.525 8.16452 129.6 18.2 129.6H40.04V162C40.04 171.925 48.2045 180 58.24 180H109.2C119.235 180 127.4 171.925 127.4 162V136.8H163.8C173.835 136.8 182 128.725 182 118.8V68.4C182 58.4748 173.835 50.4 163.8 50.4ZM7.28 111.6V61.2C7.28 55.2456 12.1794 50.4 18.2 50.4H98.28C103.096 50.4 103.099 43.2 98.28 43.2H61.88V18C61.88 12.0456 66.7794 7.2 72.8 7.2H123.76C129.781 7.2 134.68 12.0456 134.68 18V75.6C134.68 81.5544 129.781 86.4 123.76 86.4H58.24C48.2045 86.4 40.04 94.4748 40.04 104.4V122.4H18.2C12.1794 122.4 7.28 117.554 7.28 111.6ZM174.72 118.8C174.72 124.754 169.821 129.6 163.8 129.6H83.72C78.9043 129.6 78.9006 136.8 83.72 136.8H120.12V162C120.12 167.954 115.221 172.8 109.2 172.8H58.24C52.2194 172.8 47.32 167.954 47.32 162V126V104.4C47.32 98.4456 52.2194 93.6 58.24 93.6H123.76C133.795 93.6 141.96 85.5252 141.96 75.6V57.6H163.8C169.821 57.6 174.72 62.4456 174.72 68.4V118.8Z" fill="black"/>
<path d="M101.92 162C105.941 162 109.2 158.776 109.2 154.8C109.2 150.824 105.941 147.6 101.92 147.6C97.8993 147.6 94.6399 150.824 94.6399 154.8C94.6399 158.776 97.8993 162 101.92 162Z" fill="black"/>
</svg>
